<svg xmlns="http://www.w3.org/2000/svg" width="1200" height="260" viewBox="0 0 1200 260" role="img" aria-labelledby="title desc">
  <title id="title">Footer layout 3 preview</title>
  <desc id="desc">A footer with a centered newsletter panel, four content columns, and copyright.</desc>
  <rect width="1200" height="260" rx="12" fill="#f1f3f7"/>
  <rect x="16" y="16" width="1168" height="82" rx="8" fill="#263248"/>
  <rect x="418" y="32" width="364" height="13" rx="4" fill="#fff"/>
  <rect x="468" y="55" width="264" height="7" rx="3" fill="#9aa5b7"/>
  <rect x="430" y="70" width="260" height="18" rx="4" fill="#fff"/>
  <rect x="696" y="70" width="74" height="18" rx="4" fill="#f6a800"/>
  <rect x="16" y="106" width="1168" height="110" rx="8" fill="#172033"/>
  <rect x="44" y="128" width="112" height="17" rx="4" fill="#fff"/>
  <rect x="44" y="159" width="248" height="7" rx="3" fill="#778399"/>
  <rect x="44" y="180" width="220" height="7" rx="3" fill="#778399"/>
  <g fill="#fff">
    <rect x="394" y="128" width="82" height="11" rx="3"/>
    <rect x="638" y="128" width="92" height="11" rx="3"/>
    <rect x="882" y="128" width="104" height="11" rx="3"/>
  </g>
  <g fill="#778399">
    <rect x="394" y="157" width="132" height="7" rx="3"/>
    <rect x="394" y="179" width="108" height="7" rx="3"/>
    <rect x="638" y="157" width="140" height="7" rx="3"/>
    <rect x="638" y="179" width="118" height="7" rx="3"/>
    <rect x="882" y="157" width="160" height="7" rx="3"/>
    <rect x="882" y="179" width="136" height="7" rx="3"/>
  </g>
  <rect x="16" y="224" width="1168" height="20" rx="6" fill="#101727"/>
</svg>
